<svg
   xmlns:dc="http://purl.org/dc/elements/1.1/"
   xmlns:cc="http://creativecommons.org/ns#"
   xmlns:rdf="http://www.w3.org/1999/02/22-rdf-syntax-ns#"
   xmlns:svg="http://www.w3.org/2000/svg"
   xmlns="http://www.w3.org/2000/svg"
   viewBox="0 0 664 306.66666"
   height="306.66666"
   width="664"
   xml:space="preserve"
   id="svg2"
   version="1.1"><metadata
     id="metadata8"><rdf:RDF><cc:Work
         rdf:about=""><dc:format>image/svg+xml</dc:format><dc:type
           rdf:resource="http://purl.org/dc/dcmitype/StillImage" /><dc:title></dc:title></cc:Work></rdf:RDF></metadata><defs
     id="defs6" /><g
     transform="matrix(1.3333333,0,0,-1.3333333,0,306.66667)"
     id="g10"><g
       transform="scale(0.1)"
       id="g12"><path
         id="path14"
         style="fill:#009857;fill-opacity:1;fill-rule:evenodd;stroke:none"
         d="m 1247,1.82422 h 46.5 V 60.6094 c 3.74,-4.1563 14.43,-12.4688 31.8,-12.4688 40.36,0 67.88,32.3594 67.88,85.5044 0,43.644 -29.13,75.41 -63.07,75.41 -20.04,0 -31.27,-11.282 -36.08,-19.594 h -0.53 v 16.031 H 1247 Z m 99.68,126.77378 c 0,-16.032 -11.49,-28.7972 -26.19,-28.7972 -14.43,0 -25.92,12.7652 -25.92,28.7972 0,16.031 11.49,28.8 25.92,28.8 14.7,0 26.19,-12.769 26.19,-28.8" /><path
         id="path16"
         style="fill:#009857;fill-opacity:1;fill-rule:evenodd;stroke:none"
         d="m 1538.63,117.613 c -8.82,-10.39 -27.52,-21.9685 -43.29,-21.9685 -6.68,0 -13.63,2.375 -16.04,4.1563 l 69.75,54.9262 c -5.34,19 -16.03,54.328 -61.46,54.328 -31.8,0 -72.43,-25.532 -72.43,-80.754 0,-63.8322 45.97,-80.1604 68.68,-80.1604 29.4,0 49.45,13.3594 58,19 z m -78.04,10.094 c -0.53,2.969 -1.06,5.641 -1.06,8.313 0,18.406 10.69,28.503 23.51,28.503 3.75,0 12.3,-1.187 15.24,-5.343 l -37.69,-31.473" /><path
         id="path18"
         style="fill:#009857;fill-opacity:1;fill-rule:nonzero;stroke:none"
         d="m 1572.94,51.7031 h 46.5 v 74.5199 c 0,17.515 4.54,27.609 30.47,27.609 v 51.66 c -16.31,0 -24.06,-3.562 -29.94,-15.437 h -0.53 v 15.437 h -46.5 V 51.7031" /><path
         id="path20"
         style="fill:#009857;fill-opacity:1;fill-rule:nonzero;stroke:none"
         d="m 1761.42,51.7031 h 46.5 V 265.465 h -46.5 V 51.7031" /><path
         id="path22"
         style="fill:#009857;fill-opacity:1;fill-rule:evenodd;stroke:none"
         d="m 1847.54,166.898 c 8.55,1.485 15.24,3.563 29.67,3.563 20.57,0 25.12,-4.75 25.12,-20.188 -4.28,2.372 -12.03,4.153 -20.31,4.153 -31,0 -47.84,-25.828 -47.84,-52.25 0,-34.7385 20.04,-54.0354 43.03,-54.0354 18.7,0 28.33,11.5782 29.93,14.8438 h 0.53 V 51.7031 h 40.09 V 157.098 c 0,40.972 -20.05,48.394 -56.66,48.394 -12.56,0 -25.39,-1.187 -37.94,-2.078 z m 45.17,-45.722 c 7.75,0 14.16,-7.125 14.16,-15.735 0,-8.609 -6.41,-15.734 -14.16,-15.734 -7.75,0 -14.17,7.125 -14.17,15.734 0,8.61 6.42,15.735 14.17,15.735" /><path
         id="path24"
         style="fill:#009857;fill-opacity:1;fill-rule:evenodd;stroke:none"
         d="m 2068.71,51.7031 h 50.24 v 56.4099 c 48.37,-0.89 82.85,20.188 82.85,78.082 0,49.285 -22.45,79.27 -66.81,79.27 h -66.28 z m 50.24,163.2889 h 9.62 c 17.11,0 22.98,-12.765 22.98,-26.422 0,-13.656 -5.87,-26.422 -22.98,-26.422 h -9.62 v 52.844" /><path
         id="path26"
         style="fill:#009857;fill-opacity:1;fill-rule:nonzero;stroke:none"
         d="m 2230.93,51.7031 h 46.5 v 74.5199 c 0,17.515 4.55,27.609 30.47,27.609 v 51.66 c -16.3,0 -24.05,-3.562 -29.93,-15.437 h -0.54 v 15.437 h -46.5 V 51.7031" /><path
         id="path28"
         style="fill:#009857;fill-opacity:1;fill-rule:evenodd;stroke:none"
         d="m 2329.27,128.598 c 0,-44.5355 32.34,-80.4574 72.43,-80.4574 40.09,0 72.42,35.9219 72.42,80.4574 0,44.535 -32.33,80.457 -72.42,80.457 -40.09,0 -72.43,-35.922 -72.43,-80.457 z m 46.5,0 c 0,16.031 11.5,28.8 25.93,28.8 14.43,0 25.92,-12.769 25.92,-28.8 0,-16.032 -11.49,-28.7972 -25.92,-28.7972 -14.43,0 -25.93,12.7652 -25.93,28.7972" /><path
         id="path30"
         style="fill:#009857;fill-opacity:1;fill-rule:nonzero;stroke:none"
         d="m 2506.2,205.492 h -9.63 v -44.531 h 9.63 V 90.5977 c 0,-38.8946 20.84,-38.8946 60.12,-38.8946 l 6.95,52.8479 c -1.6,-0.594 -2.93,-1.188 -6.95,-1.188 -13.62,0 -13.62,8.016 -13.62,15.438 v 42.16 h 17.1 v 44.531 h -17.1 v 48.692 l -46.5,-29.688 v -19.004" /><path
         id="path32"
         style="fill:#009857;fill-opacity:1;fill-rule:evenodd;stroke:none"
         d="m 2718.6,117.613 c -8.82,-10.39 -27.53,-21.9685 -43.3,-21.9685 -6.67,0 -13.62,2.375 -16.03,4.1563 l 69.75,54.9262 c -5.34,19 -16.04,54.328 -61.47,54.328 -31.8,0 -72.42,-25.532 -72.42,-80.754 0,-63.8322 45.97,-80.1604 68.68,-80.1604 29.4,0 49.44,13.3594 57.99,19 z m -78.04,10.094 c -0.53,2.969 -1.07,5.641 -1.07,8.313 0,18.406 10.69,28.503 23.52,28.503 3.74,0 12.29,-1.187 15.24,-5.343 l -37.69,-31.473" /><path
         id="path34"
         style="fill:#009857;fill-opacity:1;fill-rule:nonzero;stroke:none"
         d="m 2745.15,153.832 h 37.69 L 2744.09,51.7031 h 104.22 l 9.09,51.6599 h -44.1 l 40.09,102.129 h -108.24 v -51.66" /><path
         id="path36"
         style="fill:#009857;fill-opacity:1;fill-rule:evenodd;stroke:none"
         d="m 2883.29,51.7031 h 46.5 V 205.492 h -46.5 z m 0,167.4449 h 46.5 v 46.317 h -46.5 v -46.317" /><path
         id="path38"
         style="fill:#009857;fill-opacity:1;fill-rule:evenodd;stroke:none"
         d="m 2956.85,128.598 c 0,-44.5355 32.33,-80.4574 72.42,-80.4574 40.09,0 72.43,35.9219 72.43,80.4574 0,44.535 -32.34,80.457 -72.43,80.457 -40.09,0 -72.42,-35.922 -72.42,-80.457 z m 46.5,0 c 0,16.031 11.49,28.8 25.92,28.8 14.43,0 25.93,-12.769 25.93,-28.8 0,-16.032 -11.5,-28.7972 -25.93,-28.7972 -14.43,0 -25.92,12.7652 -25.92,28.7972" /><path
         id="path40"
         style="fill:#009857;fill-opacity:1;fill-rule:evenodd;stroke:none"
         d="m 3129.49,51.7031 h 46.5 V 136.02 c 0,9.796 1.88,21.378 13.37,21.378 12.56,0 14.16,-11.582 14.16,-21.378 V 51.7031 h 46.5 V 164.82 c 0,32.657 -20.84,44.235 -40.09,44.235 -13.89,0 -24.85,-6.828 -33.94,-17.813 v 14.25 h -46.5 V 51.7031" /><path
         id="path42"
         style="fill:#009857;fill-opacity:1;fill-rule:evenodd;stroke:none"
         d="m 3401.17,117.613 c -8.82,-10.39 -27.53,-21.9685 -43.29,-21.9685 -6.68,0 -13.63,2.375 -16.04,4.1563 l 69.75,54.9262 c -5.34,19 -16.03,54.328 -61.46,54.328 -31.81,0 -72.43,-25.532 -72.43,-80.754 0,-63.8322 45.97,-80.1604 68.69,-80.1604 29.4,0 49.43,13.3594 57.99,19 z m -78.04,10.094 c -0.53,2.969 -1.06,5.641 -1.06,8.313 0,18.406 10.69,28.503 23.51,28.503 3.75,0 12.3,-1.187 15.24,-5.343 l -37.69,-31.473" /><path
         id="path44"
         style="fill:#009857;fill-opacity:1;fill-rule:evenodd;stroke:none"
         d="m 3506.64,51.7031 h 54.25 l 6.95,23.75 h 66.28 l 6.95,-23.75 h 54.25 l -64.68,213.7619 h -56.65 z m 112.51,76.5979 h -35.81 l 17.37,59.379 h 0.54 l 17.9,-59.379" /><path
         id="path46"
         style="fill:#009857;fill-opacity:1;fill-rule:nonzero;stroke:none"
         d="m 3717.76,51.7031 h 46.5 v 84.6129 c 0,7.422 0,18.704 13.37,18.704 12.82,0 12.82,-13.36 12.82,-20.782 V 51.7031 h 46.5 v 84.6129 c 0,7.422 0,18.704 13.37,18.704 12.82,0 12.82,-13.36 12.82,-20.782 V 51.7031 h 46.5 V 164.82 c 0,22.266 -13.62,44.235 -43.02,44.235 -9.89,0 -24.85,-4.157 -36.62,-17.813 -13.62,17.813 -25.92,17.813 -32.6,17.813 -18.44,0 -29.93,-14.25 -32.6,-17.813 h -0.54 v 14.25 h -46.5 V 51.7031" /><path
         id="path48"
         style="fill:#009857;fill-opacity:1;fill-rule:evenodd;stroke:none"
         d="m 3943.02,130.082 c 0,-25.531 0,-81.9414 69.48,-81.9414 36.61,0 72.96,21.0782 72.96,82.2384 0,57.301 -36.08,78.676 -62.8,78.676 -14.17,0 -29.13,-6.532 -32.61,-12.469 h -0.53 v 68.879 h -46.5 z m 45.43,-1.484 c 0,16.031 11.49,28.8 25.39,28.8 13.62,0 25.12,-12.769 25.12,-28.8 0,-16.032 -11.5,-28.7972 -25.12,-28.7972 -13.9,0 -25.39,12.7652 -25.39,28.7972" /><path
         id="path50"
         style="fill:#009857;fill-opacity:1;fill-rule:evenodd;stroke:none"
         d="m 4114.6,51.7031 h 46.5 V 205.492 h -46.5 z m 0,167.4449 h 46.5 v 46.317 h -46.5 v -46.317" /><path
         id="path52"
         style="fill:#009857;fill-opacity:1;fill-rule:evenodd;stroke:none"
         d="m 4311.63,117.613 c -8.82,-10.39 -27.52,-21.9685 -43.29,-21.9685 -6.68,0 -13.63,2.375 -16.04,4.1563 l 69.75,54.9262 c -5.34,19 -16.03,54.328 -61.46,54.328 -31.8,0 -72.43,-25.532 -72.43,-80.754 0,-63.8322 45.97,-80.1604 68.68,-80.1604 29.41,0 49.45,13.3594 58,19 z m -78.03,10.094 c -0.54,2.969 -1.07,5.641 -1.07,8.313 0,18.406 10.68,28.503 23.52,28.503 3.74,0 12.29,-1.187 15.23,-5.343 l -37.68,-31.473" /><path
         id="path54"
         style="fill:#009857;fill-opacity:1;fill-rule:evenodd;stroke:none"
         d="m 4345.94,51.7031 h 46.5 V 136.02 c 0,9.796 1.86,21.378 13.36,21.378 12.56,0 14.16,-11.582 14.16,-21.378 V 51.7031 h 46.5 V 164.82 c 0,32.657 -20.84,44.235 -40.08,44.235 -13.9,0 -24.86,-6.828 -33.94,-17.813 v 14.25 h -46.5 V 51.7031" /><path
         id="path56"
         style="fill:#009857;fill-opacity:1;fill-rule:nonzero;stroke:none"
         d="m 4505.64,205.492 h -9.62 v -44.531 h 9.62 V 90.5977 c 0,-38.8946 20.84,-38.8946 60.13,-38.8946 l 6.94,52.8479 c -1.6,-0.594 -2.93,-1.188 -6.94,-1.188 -13.63,0 -13.63,8.016 -13.63,15.438 v 42.16 h 17.1 v 44.531 h -17.1 v 48.692 l -46.5,-29.688 v -19.004" /><path
         id="path58"
         style="fill:#009857;fill-opacity:1;fill-rule:evenodd;stroke:none"
         d="m 4607.13,166.898 c 8.55,1.485 15.24,3.563 29.67,3.563 20.58,0 25.12,-4.75 25.12,-20.188 -4.28,2.372 -12.03,4.153 -20.31,4.153 -31,0 -47.84,-25.828 -47.84,-52.25 0,-34.7385 20.04,-54.0354 43.03,-54.0354 18.71,0 28.33,11.5782 29.93,14.8438 h 0.54 V 51.7031 h 40.08 V 157.098 c 0,40.972 -20.04,48.394 -56.65,48.394 -12.57,0 -25.39,-1.187 -37.95,-2.078 z m 45.17,-45.722 c 7.75,0 14.16,-7.125 14.16,-15.735 0,-8.609 -6.41,-15.734 -14.16,-15.734 -7.75,0 -14.17,7.125 -14.17,15.734 0,8.61 6.42,15.735 14.17,15.735" /><path
         id="path60"
         style="fill:#009857;fill-opacity:1;fill-rule:nonzero;stroke:none"
         d="m 4742.17,51.7031 h 46.5 V 265.465 h -46.5 V 51.7031" /><path
         id="path62"
         style="fill:#009857;fill-opacity:1;fill-rule:evenodd;stroke:none"
         d="m 4939.2,117.613 c -8.82,-10.39 -27.52,-21.9685 -43.29,-21.9685 -6.69,0 -13.63,2.375 -16.03,4.1563 l 69.75,54.9262 c -5.35,19 -16.04,54.328 -61.47,54.328 -31.8,0 -72.43,-25.532 -72.43,-80.754 0,-63.8322 45.97,-80.1604 68.68,-80.1604 29.4,0 49.45,13.3594 58,19 z m -78.03,10.094 c -0.54,2.969 -1.07,5.641 -1.07,8.313 0,18.406 10.69,28.503 23.51,28.503 3.74,0 12.3,-1.187 15.24,-5.343 l -37.68,-31.473" /><path
         id="path64"
         style="fill:#009857;fill-opacity:1;fill-rule:evenodd;stroke:none"
         d="m 2759.86,351.043 h 54.25 l 6.94,23.75 h 66.28 l 6.94,-23.75 h 54.25 l -64.66,213.762 h -56.66 z m 112.5,76.598 h -35.81 l 17.37,59.379 h 0.54 l 17.9,-59.379" /><path
         id="path66"
         style="fill:#009857;fill-opacity:1;fill-rule:evenodd;stroke:none"
         d="m 2956.2,327.293 c 17.37,-16.926 36.88,-28.504 60.4,-28.504 46.23,0 65.74,33.551 65.74,63.535 0,21.379 -7.48,31.176 -11.49,36.223 6.41,6.531 13.09,21.375 13.09,38 0,23.754 -9.35,41.269 -13.36,45.129 l 13.9,23.156 h -28.33 v 0.594 c 2.4,-0.594 -24.85,2.969 -37.95,2.969 -25.12,0 -59.06,-17.813 -59.06,-71.848 0,-29.688 17.91,-67.988 62.54,-67.988 4.27,0 9.62,0.296 14.16,1.781 v -7.125 c 0,-10.391 -7.75,-16.922 -17.91,-16.922 -13.89,0 -29.66,7.422 -38.74,19.297 z m 47.3,111.035 c 0,10.692 7.75,19.598 17.11,19.598 8.82,0 16.83,-8.906 16.83,-19.598 0,-10.094 -8.01,-19.297 -16.83,-19.297 -9.36,0 -17.11,9.203 -17.11,19.297" /><path
         id="path68"
         style="fill:#009857;fill-opacity:1;fill-rule:evenodd;stroke:none"
         d="m 3222.66,416.953 c -8.81,-10.39 -27.52,-21.973 -43.28,-21.973 -6.68,0 -13.63,2.379 -16.04,4.161 l 69.75,54.922 c -5.35,19.003 -16.04,54.332 -61.46,54.332 -31.81,0 -72.42,-25.532 -72.42,-80.754 0,-63.832 45.96,-80.161 68.67,-80.161 29.4,0 49.44,13.36 58,19 z m -78.03,10.094 c -0.53,2.969 -1.06,5.641 -1.06,8.312 0,18.411 10.68,28.504 23.51,28.504 3.74,0 12.3,-1.187 15.23,-5.347 l -37.68,-31.469" /><path
         id="path70"
         style="fill:#009857;fill-opacity:1;fill-rule:evenodd;stroke:none"
         d="m 3248.89,351.043 h 46.5 v 84.316 c 0,9.797 1.87,21.379 13.36,21.379 12.56,0 14.16,-11.582 14.16,-21.379 v -84.316 h 46.5 V 464.16 c 0,32.656 -20.84,44.235 -40.08,44.235 -13.9,0 -24.86,-6.829 -33.94,-17.813 v 14.25 h -46.5 V 351.043" /><path
         id="path72"
         style="fill:#009857;fill-opacity:1;fill-rule:nonzero;stroke:none"
         d="m 3388.47,453.172 h 37.69 l -38.75,-102.129 h 104.22 l 9.08,51.66 h -44.09 l 40.08,102.129 h -108.23 v -51.66" /><path
         id="path74"
         style="fill:#009857;fill-opacity:1;fill-rule:evenodd;stroke:none"
         d="m 3518.52,351.043 h 46.5 v 153.789 h -46.5 z m 0,167.445 h 46.5 v 46.317 h -46.5 v -46.317" /><path
         id="path76"
         style="fill:#009857;fill-opacity:1;fill-rule:evenodd;stroke:none"
         d="m 3596.55,466.238 c 8.56,1.485 15.24,3.563 29.66,3.563 20.58,0 25.13,-4.75 25.13,-20.192 -4.28,2.379 -12.03,4.161 -20.32,4.161 -30.99,0 -47.83,-25.832 -47.83,-52.254 0,-34.739 20.04,-54.036 43.02,-54.036 18.71,0 28.33,11.579 29.93,14.844 h 0.54 v -11.281 h 40.09 v 105.398 c 0,40.969 -20.05,48.391 -56.66,48.391 -12.56,0 -25.39,-1.187 -37.95,-2.078 z m 45.16,-45.722 c 7.75,0 14.17,-7.125 14.17,-15.735 0,-8.609 -6.42,-15.734 -14.17,-15.734 -7.75,0 -14.16,7.125 -14.16,15.734 0,8.61 6.41,15.735 14.16,15.735" /><path
         id="path78"
         style="fill:#009857;fill-opacity:1;fill-rule:evenodd;stroke:none"
         d="m 3801.54,351.043 h 50.25 v 88.176 h 0.53 l 33.94,-88.176 h 56.65 l -36.88,92.629 c 16.84,12.473 26.19,29.691 26.19,52.551 0,45.425 -26.45,68.582 -64.67,68.582 h -66.01 z m 50.25,166.262 c 18.7,0 30.19,-7.129 30.19,-26.426 0,-19.297 -11.49,-26.422 -30.19,-26.422 v 52.848" /><path
         id="path80"
         style="fill:#009857;fill-opacity:1;fill-rule:evenodd;stroke:none"
         d="m 4071.92,416.953 c -8.82,-10.39 -27.52,-21.973 -43.29,-21.973 -6.68,0 -13.63,2.379 -16.04,4.161 l 69.75,54.922 c -5.34,19.003 -16.03,54.332 -61.46,54.332 -31.8,0 -72.42,-25.532 -72.42,-80.754 0,-63.832 45.96,-80.161 68.68,-80.161 29.39,0 49.44,13.36 57.99,19 z m -78.03,10.094 c -0.53,2.969 -1.07,5.641 -1.07,8.312 0,18.411 10.69,28.504 23.52,28.504 3.74,0 12.29,-1.187 15.23,-5.347 l -37.68,-31.469" /><path
         id="path82"
         style="fill:#009857;fill-opacity:1;fill-rule:evenodd;stroke:none"
         d="m 4090.39,327.293 c 17.38,-16.926 36.88,-28.504 60.4,-28.504 46.23,0 65.74,33.551 65.74,63.535 0,21.379 -7.49,31.176 -11.49,36.223 6.41,6.531 13.09,21.375 13.09,38 0,23.754 -9.35,41.269 -13.36,45.129 l 13.89,23.156 h -28.32 v 0.594 c 2.4,-0.594 -24.86,2.969 -37.95,2.969 -25.12,0 -59.06,-17.813 -59.06,-71.848 0,-29.688 17.91,-67.988 62.53,-67.988 4.28,0 9.62,0.296 14.17,1.781 v -7.125 c 0,-10.391 -7.75,-16.922 -17.9,-16.922 -13.9,0 -29.67,7.422 -38.75,19.297 z m 47.3,111.035 c 0,10.692 7.75,19.598 17.11,19.598 8.82,0 16.83,-8.906 16.83,-19.598 0,-10.094 -8.01,-19.297 -16.83,-19.297 -9.36,0 -17.11,9.203 -17.11,19.297" /><path
         id="path84"
         style="fill:#009857;fill-opacity:1;fill-rule:evenodd;stroke:none"
         d="m 4240.61,351.043 h 46.5 v 153.789 h -46.5 z m 0,167.445 h 46.5 v 46.317 h -46.5 v -46.317" /><path
         id="path86"
         style="fill:#009857;fill-opacity:1;fill-rule:evenodd;stroke:none"
         d="m 4306.09,427.938 c 0,-44.532 32.33,-80.458 72.42,-80.458 40.08,0 72.42,35.926 72.42,80.458 0,44.535 -32.34,80.457 -72.42,80.457 -40.09,0 -72.42,-35.922 -72.42,-80.457 z m 46.49,0 c 0,16.031 11.5,28.8 25.93,28.8 14.42,0 25.92,-12.769 25.92,-28.8 0,-16.032 -11.5,-28.797 -25.92,-28.797 -14.43,0 -25.93,12.765 -25.93,28.797" /><path
         id="path88"
         style="fill:#009857;fill-opacity:1;fill-rule:evenodd;stroke:none"
         d="m 4470.64,351.043 h 46.5 v 84.316 c 0,9.797 1.87,21.379 13.36,21.379 12.55,0 14.16,-11.582 14.16,-21.379 v -84.316 h 46.5 V 464.16 c 0,32.656 -20.84,44.235 -40.09,44.235 -13.89,0 -24.84,-6.829 -33.93,-17.813 v 14.25 h -46.5 V 351.043" /><path
         id="path90"
         style="fill:#009857;fill-opacity:1;fill-rule:evenodd;stroke:none"
         d="m 4623.32,466.238 c 8.55,1.485 15.23,3.563 29.66,3.563 20.58,0 25.12,-4.75 25.12,-20.192 -4.27,2.379 -12.03,4.161 -20.31,4.161 -31,0 -47.83,-25.832 -47.83,-52.254 0,-34.739 20.04,-54.036 43.02,-54.036 18.71,0 28.33,11.579 29.93,14.844 h 0.54 v -11.281 h 40.08 v 105.398 c 0,40.969 -20.04,48.391 -56.65,48.391 -12.56,0 -25.39,-1.187 -37.95,-2.078 z m 45.16,-45.722 c 7.75,0 14.17,-7.125 14.17,-15.735 0,-8.609 -6.42,-15.734 -14.17,-15.734 -7.75,0 -14.16,7.125 -14.16,15.734 0,8.61 6.41,15.735 14.16,15.735" /><path
         id="path92"
         style="fill:#009857;fill-opacity:1;fill-rule:nonzero;stroke:none"
         d="m 4750.27,351.043 h 46.49 v 213.762 h -46.49 V 351.043" /><path
         id="path94"
         style="fill:#009857;fill-opacity:1;fill-rule:evenodd;stroke:none"
         d="m 4939.2,416.953 c -8.81,-10.39 -27.52,-21.973 -43.29,-21.973 -6.68,0 -13.62,2.379 -16.03,4.161 l 69.75,54.922 c -5.35,19.003 -16.04,54.332 -61.47,54.332 -31.8,0 -72.42,-25.532 -72.42,-80.754 0,-63.832 45.96,-80.161 68.68,-80.161 29.4,0 49.44,13.36 57.99,19 z m -78.03,10.094 c -0.53,2.969 -1.07,5.641 -1.07,8.312 0,18.411 10.69,28.504 23.52,28.504 3.74,0 12.29,-1.187 15.23,-5.347 l -37.68,-31.469" /><path
         id="path96"
         style="fill:#1959a6;fill-opacity:1;fill-rule:evenodd;stroke:none"
         d="m 4100.83,1415.72 c 74.28,9.67 132.31,23.22 257.66,23.22 178.74,0 218.2,-30.96 218.2,-131.55 -37.14,15.48 -104.46,27.09 -176.42,27.09 -269.27,0 -415.51,-168.3 -415.51,-340.457 0,-226.328 174.1,-352.062 373.73,-352.062 162.49,0 246.06,75.441 259.98,96.719 h 4.65 v -73.504 h 348.19 v 686.714 c 0,266.95 -174.1,315.31 -492.11,315.31 -109.1,0 -220.52,-7.74 -329.63,-13.55 z m 392.3,-297.9 c 67.31,0 123.02,-46.42 123.02,-102.52 0,-56.097 -55.71,-102.523 -123.02,-102.523 -67.33,0 -123.03,46.426 -123.03,102.523 0,56.1 55.7,102.52 123.03,102.52" /><path
         id="path98"
         style="fill:#80d6f7;fill-opacity:1;fill-rule:nonzero;stroke:none"
         d="M 4604,1949.81 H 2974.94 L 3790.73,673.063 Z" /><path
         id="path100"
         style="fill:none;stroke:#80d6f7;stroke-width:28.37400055;stroke-linecap:butt;stroke-linejoin:miter;stroke-miterlimit:3.8636899;stroke-dasharray:none;stroke-opacity:1"
         d="M 4604,1949.81 H 2974.94 L 3790.73,673.063 Z" /><path
         id="path102"
         style="fill:#231f20;fill-opacity:1;fill-rule:nonzero;stroke:none"
         d="m 3970.36,1403.54 188.8,324.27 -203.97,130.28 -67.06,-175.13 -46.62,14.96 44.75,195.58 -239.45,12.59 v -207.98 l -65.32,5.41 -9.58,-194.39 398.45,-105.59" /><path
         id="path104"
         style="fill:none;stroke:#231f20;stroke-width:5.00500011;stroke-linecap:butt;stroke-linejoin:miter;stroke-miterlimit:3.86370993;stroke-dasharray:none;stroke-opacity:1"
         d="m 3970.36,1403.54 188.8,324.27 -203.97,130.28 -67.06,-175.13 -46.62,14.96 44.75,195.58 -239.45,12.59 v -207.98 l -65.32,5.41 -9.58,-194.39 z" /><path
         id="path106"
         style="fill:#ca6f1f;fill-opacity:1;fill-rule:nonzero;stroke:none"
         d="m 4087.43,1514.77 -73.16,-125.08 -61.36,18.88 77.88,129.81 56.64,-23.61" /><path
         id="path108"
         style="fill:none;stroke:#ca6f1f;stroke-width:7.5;stroke-linecap:butt;stroke-linejoin:round;stroke-miterlimit:3.8636899;stroke-dasharray:none;stroke-opacity:1"
         d="m 4087.43,1514.77 -73.16,-125.08 -61.36,18.88 77.88,129.81 z" /><path
         id="path110"
         style="fill:#a7a5a6;fill-opacity:1;fill-rule:nonzero;stroke:none"
         d="m 4074.32,1373.04 -810.93,234.15 182.75,-278.19 578.53,-28.14 49.65,72.18" /><path
         id="path112"
         style="fill:none;stroke:#a7a5a6;stroke-width:7.5;stroke-linecap:butt;stroke-linejoin:round;stroke-miterlimit:3.8636899;stroke-dasharray:none;stroke-opacity:1"
         d="m 4074.32,1373.04 -810.93,234.15 182.75,-278.19 578.53,-28.14 z" /><path
         id="path114"
         style="fill:#b2db18;fill-opacity:1;fill-rule:nonzero;stroke:none"
         d="m 3967.36,1318.89 -567.5,81.54 152.12,-237.3 264.34,44.84 151.04,110.92" /><path
         id="path116"
         style="fill:none;stroke:#b2db18;stroke-width:7.5;stroke-linecap:butt;stroke-linejoin:round;stroke-miterlimit:3.8636899;stroke-dasharray:none;stroke-opacity:1"
         d="m 3967.36,1318.89 -567.5,81.54 152.12,-237.3 264.34,44.84 z" /><path
         id="path118"
         style="fill:#ffffff;fill-opacity:1;fill-rule:nonzero;stroke:none"
         d="m 3789.03,1866.74 -57.46,5.16 -2.58,-62.61 51.82,-19.55 8.22,77" /><path
         id="path120"
         style="fill:#ffffff;fill-opacity:1;fill-rule:nonzero;stroke:none"
         d="m 3774.26,1755.68 -43.76,2.35 0.49,-58.78 35.19,-5.16 8.08,61.59" /><path
         id="path122"
         style="fill:#ffffff;fill-opacity:1;fill-rule:nonzero;stroke:none"
         d="m 4055.73,1756.65 -53.25,22.28 -37.77,-84.89 37.77,-20.65 53.25,83.26" /><path
         id="path124"
         style="fill:#009857;fill-opacity:1;fill-rule:nonzero;stroke:none"
         d="m 4060.2,1598.4 c 0,25.67 28.55,46.48 63.75,46.48 35.21,0 63.75,-20.81 63.75,-46.48 0,-25.67 -28.54,-46.48 -63.75,-46.48 -35.2,0 -63.75,20.81 -63.75,46.48" /><path
         id="path126"
         style="fill:none;stroke:#009857;stroke-width:7.5;stroke-linecap:butt;stroke-linejoin:round;stroke-miterlimit:3.8636899;stroke-dasharray:none;stroke-opacity:1"
         d="m 4060.2,1598.4 c 0,25.67 28.55,46.48 63.75,46.48 35.21,0 63.75,-20.81 63.75,-46.48 0,-25.67 -28.54,-46.48 -63.75,-46.48 -35.2,0 -63.75,20.81 -63.75,46.48 z" /><path
         id="path128"
         style="fill:#009857;fill-opacity:1;fill-rule:nonzero;stroke:none"
         d="m 3981.21,1651.45 c 0,40.09 32.1,72.59 71.71,72.59 39.6,0 71.71,-32.5 71.71,-72.59 0,-40.1 -32.11,-72.61 -71.71,-72.61 -39.61,0 -71.71,32.51 -71.71,72.61" /><path
         id="path130"
         style="fill:none;stroke:#009857;stroke-width:7.5;stroke-linecap:butt;stroke-linejoin:round;stroke-miterlimit:3.8636899;stroke-dasharray:none;stroke-opacity:1"
         d="m 3981.21,1651.45 c 0,40.09 32.1,72.59 71.71,72.59 39.6,0 71.71,-32.5 71.71,-72.59 0,-40.1 -32.11,-72.61 -71.71,-72.61 -39.61,0 -71.71,32.51 -71.71,72.61 z" /><path
         id="path132"
         style="fill:#009857;fill-opacity:1;fill-rule:nonzero;stroke:none"
         d="m 3944.74,1560.25 c 0,36.56 33.97,66.2 75.87,66.2 41.89,0 75.86,-29.64 75.86,-66.2 0,-36.57 -33.97,-66.21 -75.86,-66.21 -41.9,0 -75.87,29.64 -75.87,66.21" /><path
         id="path134"
         style="fill:none;stroke:#009857;stroke-width:7.5;stroke-linecap:butt;stroke-linejoin:round;stroke-miterlimit:3.8636899;stroke-dasharray:none;stroke-opacity:1"
         d="m 3944.74,1560.25 c 0,36.56 33.97,66.2 75.87,66.2 41.89,0 75.86,-29.64 75.86,-66.2 0,-36.57 -33.97,-66.21 -75.86,-66.21 -41.9,0 -75.87,29.64 -75.87,66.21 z" /><path
         id="path136"
         style="fill:#009857;fill-opacity:1;fill-rule:nonzero;stroke:none"
         d="m 4063.86,1531.9 c 0,36.15 26.63,65.45 59.49,65.45 32.85,0 59.49,-29.3 59.49,-65.45 0,-36.14 -26.64,-65.44 -59.49,-65.44 -32.86,0 -59.49,29.3 -59.49,65.44" /><path
         id="path138"
         style="fill:none;stroke:#009857;stroke-width:7.5;stroke-linecap:butt;stroke-linejoin:round;stroke-miterlimit:3.8636899;stroke-dasharray:none;stroke-opacity:1"
         d="m 4063.86,1531.9 c 0,36.15 26.63,65.45 59.49,65.45 32.85,0 59.49,-29.3 59.49,-65.45 0,-36.14 -26.64,-65.44 -59.49,-65.44 -32.86,0 -59.49,29.3 -59.49,65.44 z" /><path
         id="path140"
         style="fill:none;stroke:#231f20;stroke-width:12.89700031;stroke-linecap:butt;stroke-linejoin:round;stroke-miterlimit:3.8636899;stroke-dasharray:none;stroke-opacity:1"
         d="m 3553.9,1647.73 -134.11,212.82 43.77,-212.82" /><path
         id="path142"
         style="fill:none;stroke:#231f20;stroke-width:13.54399967;stroke-linecap:butt;stroke-linejoin:round;stroke-miterlimit:3.8636899;stroke-dasharray:none;stroke-opacity:1"
         d="m 3522.07,1788.93 -133.07,-35.65 50.11,59.31 z" /><path
         id="path144"
         style="fill:none;stroke:#231f20;stroke-width:10.88199997;stroke-linecap:butt;stroke-linejoin:round;stroke-miterlimit:3.8636899;stroke-dasharray:none;stroke-opacity:1"
         d="m 3491.36,1830.32 -107.79,-28.88 40.68,45.56 z" /><path
         id="path146"
         style="fill:none;stroke:#231f20;stroke-width:10.88199997;stroke-linecap:butt;stroke-linejoin:round;stroke-miterlimit:3.8636899;stroke-dasharray:none;stroke-opacity:1"
         d="m 3525.77,1746.97 -107.79,-28.88 40.37,48.68 z" /><path
         id="path148"
         style="fill:#b2db18;fill-opacity:1;fill-rule:nonzero;stroke:none"
         d="m 3892.23,1585.29 -48.73,-57.34 48.73,-31.54 37.28,48.75 -37.28,40.13" /><path
         id="path150"
         style="fill:none;stroke:#b2db18;stroke-width:7.5;stroke-linecap:butt;stroke-linejoin:round;stroke-miterlimit:3.8636899;stroke-dasharray:none;stroke-opacity:1"
         d="m 3892.23,1585.29 -48.73,-57.34 48.73,-31.54 37.28,48.75 z" /><path
         id="path152"
         style="fill:#0e88d3;fill-opacity:1;fill-rule:nonzero;stroke:none"
         d="m 3734.52,1651.73 c 0,15.77 12.78,28.54 28.54,28.54 15.77,0 28.55,-12.77 28.55,-28.54 0,-15.77 -12.78,-28.55 -28.55,-28.55 -15.76,0 -28.54,12.78 -28.54,28.55" /><path
         id="path154"
         style="fill:none;stroke:#0e88d3;stroke-width:7.5;stroke-linecap:butt;stroke-linejoin:round;stroke-miterlimit:3.8636899;stroke-dasharray:none;stroke-opacity:1"
         d="m 3734.52,1651.73 c 0,15.77 12.78,28.54 28.54,28.54 15.77,0 28.55,-12.77 28.55,-28.54 0,-15.77 -12.78,-28.55 -28.55,-28.55 -15.76,0 -28.54,12.78 -28.54,28.55 z" /><path
         id="path156"
         style="fill:#0e88d3;fill-opacity:1;fill-rule:nonzero;stroke:none"
         d="m 3732.82,1611.45 68.2,-0.35 63.08,-57.34 -57.35,20.06 39.85,-174.75 -68.8,97.69 -16.85,-21.8 -3.54,-58.89 -30.36,64.79 25.23,44.23 -19.46,86.36" /><path
         id="path158"
         style="fill:#ffffff;fill-opacity:1;fill-rule:nonzero;stroke:none"
         d="m 3868.86,1384.79 -2.89,-14.35 -54.77,11.46 3.47,15.59 54.19,-12.7" /><path
         id="path160"
         style="fill:none;stroke:#ffffff;stroke-width:3.77999997;stroke-linecap:butt;stroke-linejoin:miter;stroke-miterlimit:3.86370993;stroke-dasharray:none;stroke-opacity:1"
         d="m 3868.86,1384.79 -2.89,-14.35 -54.77,11.46 3.47,15.59 z" /><path
         id="path162"
         style="fill:#ffffff;fill-opacity:1;fill-rule:nonzero;stroke:none"
         d="m 3750.75,1413.57 -3.37,-17.81 -75.47,16.08 4.04,19.63 74.8,-17.9" /><path
         id="path164"
         style="fill:none;stroke:#ffffff;stroke-width:3.77999997;stroke-linecap:butt;stroke-linejoin:miter;stroke-miterlimit:3.86370993;stroke-dasharray:none;stroke-opacity:1"
         d="m 3750.75,1413.57 -3.37,-17.81 -75.47,16.08 4.04,19.63 z" /><path
         id="path166"
         style="fill:#ffffff;fill-opacity:1;fill-rule:nonzero;stroke:none"
         d="m 3612.61,1445.82 -4.05,-19.55 -75.95,16.09 5.19,21.94 74.81,-18.48" /><path
         id="path168"
         style="fill:none;stroke:#ffffff;stroke-width:3.77999997;stroke-linecap:butt;stroke-linejoin:miter;stroke-miterlimit:3.86370993;stroke-dasharray:none;stroke-opacity:1"
         d="m 3612.61,1445.82 -4.05,-19.55 -75.95,16.09 5.19,21.94 z" /><path
         id="path170"
         style="fill:#0e88d3;fill-opacity:1;fill-rule:nonzero;stroke:none"
         d="m 4234.39,1452.31 -83.32,-132.73 c -66.37,-15.66 -87.22,-57.28 -100.2,-72.94 -13.52,-16.32 -50.91,-92.7 -100.28,-136.63 -69.25,-61.6 -124.7,-83.33 -216.06,-98.99 -34.62,-5.93 -54.71,-7.38 -89.82,-6.48 l -130.14,216.05 c 70.27,-7.79 110.58,-11.68 177.04,-3.89 67.45,7.9 131.93,24.4 166.73,50.88 46.82,35.62 79.11,99.12 148.23,136.54 79.86,43.24 140.61,54.68 227.82,48.19" /><path
         id="path172"
         style="fill:none;stroke:#0e88d3;stroke-width:2.14199996;stroke-linecap:butt;stroke-linejoin:miter;stroke-miterlimit:3.8636899;stroke-dasharray:none;stroke-opacity:1"
         d="m 4234.39,1452.31 -83.32,-132.73 c -66.37,-15.66 -87.22,-57.28 -100.2,-72.94 -13.52,-16.32 -50.91,-92.7 -100.28,-136.63 -69.25,-61.6 -124.7,-83.33 -216.06,-98.99 -34.62,-5.93 -54.71,-7.38 -89.82,-6.48 l -130.14,216.05 c 70.27,-7.79 110.58,-11.68 177.04,-3.89 67.45,7.9 131.93,24.4 166.73,50.88 46.82,35.62 79.11,99.12 148.23,136.54 79.86,43.24 140.61,54.68 227.82,48.19 z" /><path
         id="path174"
         style="fill:#0e88d3;fill-opacity:1;fill-rule:nonzero;stroke:none"
         d="m 3533.68,1676.92 c -41.07,41.07 -138.31,34.88 -170.72,-17.57 -22.8,-36.9 -19.83,-88.39 4.94,-116.05 23.5,-26.22 54.98,-43.98 89.13,-30.44 16.71,6.62 35.11,29.59 35.23,29.71 0.19,0.19 29.79,-54.32 71.88,-50.69 57.4,4.95 51.04,69.07 55.64,70.23 32.52,8.24 77.36,33.45 82.4,77.19 5.14,44.76 -22.23,84.34 -66.07,94.77 -44.5,10.58 -88.06,-13.72 -102.43,-57.15" /><path
         id="path176"
         style="fill:none;stroke:#0e88d3;stroke-width:2.14199996;stroke-linecap:butt;stroke-linejoin:miter;stroke-miterlimit:3.8636899;stroke-dasharray:none;stroke-opacity:1"
         d="m 3533.68,1676.92 c -41.07,41.07 -138.31,34.88 -170.72,-17.57 -22.8,-36.9 -19.83,-88.39 4.94,-116.05 23.5,-26.22 54.98,-43.98 89.13,-30.44 16.71,6.62 35.11,29.59 35.23,29.71 0.19,0.19 29.79,-54.32 71.88,-50.69 57.4,4.95 51.04,69.07 55.64,70.23 32.52,8.24 77.36,33.45 82.4,77.19 5.14,44.76 -22.23,84.34 -66.07,94.77 -44.5,10.58 -88.06,-13.72 -102.43,-57.15 z" /><path
         id="path178"
         style="fill:#009857;fill-opacity:1;fill-rule:nonzero;stroke:none"
         d="M 2948.9,2290.8 H 4632.22 V 2010.07 H 2948.9 v 280.73" /><path
         id="path180"
         style="fill:#ffffff;fill-opacity:1;fill-rule:evenodd;stroke:none"
         d="m 3072.59,2063.44 c -0.53,4.81 -0.54,29.74 -0.54,34.31 l -0.01,6.18 c 64.74,9.12 97.1,41.36 97.09,71.09 -0.01,25.85 -23.56,39.36 -50.32,45.09 -22.2,4.58 -54.84,5.74 -105.93,5.76 0,-3.43 0.82,-50.78 0.82,-56.04 l 0.01,-25.16 c 0,-16.24 -0.51,-71.37 -0.77,-81.21 z m -0.58,130.38 c 28.62,-1.84 36.38,-12.37 36.39,-25.18 0.01,-18.98 -20.85,-30.41 -36.37,-32.46 l -0.02,57.64" /><path
         id="path182"
         style="fill:#ffffff;fill-opacity:1;fill-rule:nonzero;stroke:none"
         d="m 3266.66,2157.14 c -0.01,27.45 0.78,64.51 1.04,68.63 l -62.06,0.02 c 0,-5.49 0.82,-64.27 0.83,-68.16 l 0.01,-24.7 c 0,-5.95 -0.25,-59.48 -0.78,-69.54 l 62.07,-0.03 c -0.27,5.27 -1.09,46.21 -1.1,69.08 l -0.01,24.7" /><path
         id="path184"
         style="fill:#ffffff;fill-opacity:1;fill-rule:nonzero;stroke:none"
         d="m 3443.63,2100.35 c -12.58,-0.91 -52.97,-0.44 -59.93,-0.44 v 27.22 c 5.88,0 41.46,-0.93 48.68,-0.93 l -0.81,36.6 c -11.77,-0.91 -42.54,-2.04 -47.89,-2.04 l -0.01,30.19 c 4.81,0 46.81,1.13 56.71,1.12 l -1.08,37.75 c -9.9,-0.69 -99.78,-4.08 -114.77,-4.08 0.27,-6.63 0.83,-61.76 0.83,-65.42 l 0.01,-30.64 c 0.01,-5.27 0.02,-54.22 -0.77,-66.34 13.91,0 110.48,-2.33 120.11,-2.34 l -1.08,39.35" /><path
         id="path186"
         style="fill:#ffffff;fill-opacity:1;fill-rule:nonzero;stroke:none"
         d="m 3519.57,2056.17 c 4.81,10.75 24.05,69.76 28.59,81.65 4.29,-6.86 32.39,-45.76 53,-72.3 h 2.67 c 20.06,24.01 54.28,69.05 57.49,73.17 2.95,-6.18 28.38,-64.29 36.95,-82.59 l 54.03,20.56 c -7.23,12.59 -61.04,116.46 -79.51,150.32 h -2.68 c -14.16,-19.67 -51.86,-73.18 -62.29,-86.67 -8.3,11.67 -47.91,67.73 -64.24,90.38 h -2.68 c -15.51,-29.05 -69.5,-148.65 -74.04,-157.8 l 52.71,-16.72" /><path
         id="path188"
         style="fill:#ffffff;fill-opacity:1;fill-rule:evenodd;stroke:none"
         d="m 3871.52,2059.46 c 89.61,-0.03 116.61,54.62 116.6,89.16 -0.02,50.33 -39.89,80.53 -103.57,80.56 -78.91,0.03 -116.35,-47.3 -116.33,-91.45 0.01,-36.59 31.87,-78.01 103.3,-78.27 z m 2.92,35.46 c -21.94,0.01 -40.93,15.57 -40.95,46.22 -0.01,27.9 17.1,52.6 47.6,52.59 25.68,-0.02 41.74,-17.18 41.48,-46.68 -0.25,-34.08 -19.23,-52.15 -48.13,-52.13" /><path
         id="path190"
         style="fill:#ffffff;fill-opacity:1;fill-rule:nonzero;stroke:none"
         d="m 4075.11,2061.44 c -0.27,7.55 -0.56,73.66 -0.56,83.03 4.01,-2.74 100.61,-68.2 132.72,-86.06 l 2.68,1.14 c 0.79,14.88 2.65,47.35 4.78,80.52 2.39,33.39 4.79,67.47 6.38,85.32 l -54.57,1.16 c -0.26,-9.84 0.56,-71.14 0.57,-83.72 -9.37,5.96 -95.27,61.57 -133.26,85.38 l -2.67,-1.37 c -2.67,-30.43 -9.04,-147.54 -10.64,-163.77 l 54.57,-1.63" /><path
         id="path192"
         style="fill:#ffffff;fill-opacity:1;fill-rule:nonzero;stroke:none"
         d="m 4361.34,2062.93 c -0.54,4.57 -0.82,36.14 -0.83,59.7 l -0.02,63.59 c 4.28,-0.01 53.77,-1.17 58.85,-1.4 l -0.01,40.03 c -13.11,-0.91 -71.43,-1.8 -76.51,-1.8 l -23.28,0.01 c -2.94,0 -66.34,0.94 -78.38,1.86 l 0.02,-40.03 c 8.29,0.23 46.28,1.36 59.11,1.35 l 0.03,-59.93 c 0.01,-24.93 -0.25,-57.41 -0.78,-63.36 l 61.8,-0.02" /><path
         id="path194"
         style="fill:#ffffff;fill-opacity:1;fill-rule:nonzero;stroke:none"
         d="m 4567.09,2099.9 c -12.56,-0.91 -52.96,-0.43 -59.92,-0.43 l -0.01,27.22 c 5.89,0 41.47,-0.93 48.69,-0.94 l -0.81,36.6 c -11.78,-0.91 -42.54,-2.04 -47.89,-2.04 l -0.01,30.2 c 4.81,-0.01 46.81,1.12 56.71,1.12 l -1.08,37.74 c -9.9,-0.68 -99.79,-4.08 -114.77,-4.07 0.27,-6.64 0.83,-61.76 0.83,-65.42 l 0.01,-30.65 c 0,-5.26 0.02,-54.21 -0.77,-66.34 13.91,0 110.48,-2.33 120.11,-2.33 l -1.09,39.34" /><path
         id="path196"
         style="fill:#1959a6;fill-opacity:1;fill-rule:nonzero;stroke:none"
         d="m 1565.21,667.852 h 411.75 l -1.86,429.648 c 5.87,115.75 99.13,250.08 316.4,202.11 v 342.19 c -137.32,26.86 -220.32,16.36 -305.53,-67.16 l -9.01,-15.35 v 130.04 H 1565.21 V 667.852" /><path
         id="path198"
         style="fill:#1959a6;fill-opacity:1;fill-rule:evenodd;stroke:none"
         d="M 3.92188,666.742 H 488.063 L 550.074,824.5 h 591.466 l 62.01,-157.758 h 484.14 L 1110.53,2086.56 H 604.926 Z M 1007.98,1175.51 H 688.402 l 155.02,394.4 h 4.769 l 159.789,-394.4" /><path
         id="path200"
         style="fill:#1959a6;fill-opacity:1;fill-rule:evenodd;stroke:none"
         d="m 3148.75,1186.01 c 0,106.49 -94.73,191.28 -215.9,191.28 -118.97,0 -213.7,-84.79 -213.7,-191.28 0,-106.49 94.73,-191.283 213.7,-191.283 121.17,0 215.9,84.793 215.9,191.283 z M 2260,347.254 V 1693.88 l 437.12,0.66 -0.3,-103.26 h 4.41 c 39.65,55.21 132.18,130.15 297.41,130.15 279.79,0 519.93,-211 519.93,-500.88 0,-352.987 -226.92,-567.933 -559.58,-567.933 -143.2,0 -231.33,55.215 -262.17,82.824 l -0.42,-388.566 -436.4,0.379" /></g></g></svg>
